<?xml version="1.0" encoding="UTF-8"?>
<svg version="1.1" xmlns="http://www.w3.org/2000/svg" width="512" height="512">
<path d="M0 0 C1.59443414 -0.00462073 3.18886401 -0.01098144 4.78328514 -0.01890898 C9.12156164 -0.03546473 13.459482 -0.02741931 17.79775906 -0.0149641 C22.49314614 -0.00585902 27.18847487 -0.01991023 31.8838501 -0.03088379 C41.06507742 -0.04861567 50.2461735 -0.04485286 59.42740583 -0.03323323 C66.89308208 -0.02417812 74.35872169 -0.02298387 81.82440186 -0.02732849 C82.8893281 -0.02794142 83.95425435 -0.02855436 85.05145109 -0.02918586 C87.21522412 -0.03046484 89.37899714 -0.03176169 91.54277015 -0.03307623 C111.80459524 -0.04446641 132.0663478 -0.03139286 152.328161 -0.00987476 C169.69162932 0.00799478 187.05499064 0.00489024 204.41845703 -0.0135498 C224.61068036 -0.03498413 244.8028402 -0.04336792 264.99507332 -0.03110075 C267.15062585 -0.02982663 269.3061784 -0.02856915 271.46173096 -0.02732849 C273.05234756 -0.02640284 273.05234756 -0.02640284 274.67509782 -0.02545848 C282.12673688 -0.02201327 289.57833547 -0.02781602 297.02996826 -0.0372467 C306.11829114 -0.04849657 315.20647593 -0.04536401 324.29478312 -0.02412373 C328.92658234 -0.01365343 333.55815181 -0.00942243 338.18994904 -0.02272034 C342.43886639 -0.03473398 346.68734336 -0.02793575 350.93622136 -0.00681013 C352.46428919 -0.00238173 353.99239506 -0.00452442 355.52043796 -0.01431328 C377.83943307 -0.14620278 395.89033589 7.29277007 412.04150391 22.81262207 C427.38206676 38.78146736 432.9615106 58.48359697 432.91772461 80.20251465 C432.92208312 81.5410134 432.92727001 82.87950966 432.93321228 84.21800232 C432.94649242 87.82151042 432.94719325 91.42491295 432.94464898 95.02844071 C432.94357157 98.05232591 432.94848224 101.07619041 432.9532544 104.10007113 C432.96431201 111.242959 432.96480845 118.38579426 432.95874023 125.52868652 C432.95270578 132.86150507 432.96500662 140.19413149 432.9863103 147.52691728 C433.00400945 153.85513099 433.00991457 160.18328401 433.00667256 166.51152152 C433.00487246 170.27669904 433.00736673 174.04173953 433.0213871 177.8068943 C433.03409694 181.35211454 433.03189936 184.89703856 433.01897621 188.44225502 C433.01553824 190.33837302 433.02669113 192.23450064 433.0385437 194.13058472 C432.91171617 215.18623091 425.54841484 233.720232 411.15087891 249.09387207 C390.63522827 268.84258249 371.17376314 270.50793457 342.64306641 270.50793457 C342.64306641 244.10793457 342.64306641 217.70793457 342.64306641 190.50793457 C349.57306641 189.51793457 349.57306641 189.51793457 356.64306641 188.50793457 C360.54241217 186.6573976 362.08868529 185.27691483 364.58056641 181.82043457 C365.99420747 177.41320065 365.82816503 173.96028427 364.64306641 169.50793457 C362.35468947 165.29732102 359.68552403 163.71786163 355.21512508 162.12646556 C349.688748 160.79747742 343.98529916 161.09775552 338.33361816 161.12698364 C336.87635717 161.12352395 335.4190988 161.1187573 333.96184587 161.11280191 C329.97053834 161.10030496 325.97944664 161.1064563 321.98813844 161.11576056 C317.67859594 161.12255608 313.36909022 161.11206733 309.05955505 161.1038208 C300.62235901 161.09048664 292.18524307 161.0933598 283.74804389 161.10205872 C276.89045866 161.1088361 270.03289585 161.10975175 263.17530823 161.10648727 C262.19899941 161.10602758 261.2226906 161.10556788 260.21679667 161.10509425 C258.23339378 161.10413506 256.2499909 161.10316242 254.26658803 161.10217647 C235.67175794 161.09362351 217.07697223 161.10345525 198.48214942 161.11957757 C182.52974406 161.13298066 166.57740418 161.13065255 150.625 161.11682129 C132.09633732 161.10076384 113.56771353 161.09444747 95.03904486 161.10365808 C93.06297144 161.10461372 91.08689801 161.10555683 89.11082458 161.10648727 C88.13857926 161.1069501 87.16633393 161.10741293 86.16462663 161.10788978 C79.31592343 161.11047917 72.46724491 161.10610976 65.61854553 161.09904861 C57.2713441 161.09063159 48.92422729 161.09291803 40.57703555 161.10889085 C36.3188312 161.11677082 32.0607679 161.11986982 27.80256462 161.10994339 C23.90290863 161.10099032 20.00352418 161.10593933 16.10389274 161.12187605 C14.69484949 161.12522126 13.2857832 161.12353559 11.87675482 161.11624868 C-0.33466102 160.95904681 -0.33466102 160.95904681 -10.79443359 166.63293457 C-12.93219172 170.56640953 -13.54618404 174.04477819 -13.35693359 178.50793457 C-12.16576675 182.22157238 -10.82443262 184.05307066 -8.04443359 186.75793457 C-2.90098228 189.42228869 -2.90098228 189.42228869 9.64306641 190.50793457 C9.64306641 216.90793457 9.64306641 243.30793457 9.64306641 270.50793457 C-19.47286535 270.50793457 -37.99129039 268.15570247 -58.75537109 248.20324707 C-74.09593394 232.23440178 -79.67537778 212.53227217 -79.6315918 190.81335449 C-79.63595031 189.47485574 -79.6411372 188.13635948 -79.64707947 186.79786682 C-79.66035961 183.19435872 -79.66106043 179.5909562 -79.65851617 175.98742843 C-79.65743876 172.96354323 -79.66234943 169.93967873 -79.66712159 166.91579801 C-79.67817919 159.77291014 -79.67867564 152.63007488 -79.67260742 145.48718262 C-79.66657296 138.15436407 -79.67887381 130.82173765 -79.70017749 123.48895186 C-79.71787664 117.16073815 -79.72378176 110.83258513 -79.72053975 104.50434762 C-79.71873965 100.7391701 -79.72123392 96.97412961 -79.73525429 93.20897484 C-79.74796413 89.6637546 -79.74576654 86.11883058 -79.7328434 82.57361412 C-79.72940543 80.67749612 -79.74055831 78.7813685 -79.75241089 76.88528442 C-79.62558336 55.82963823 -72.26228203 37.29563714 -57.86474609 21.92199707 C-41.36879284 6.04271496 -22.4368615 -0.14373377 0 0 Z M-11.29443359 70.13293457 C-13.85241181 74.31871711 -14.65501816 77.62460797 -14.35693359 82.50793457 C-12.74816056 87.2448774 -10.52908372 89.79118565 -6.35693359 92.50793457 C-0.75518095 94.97228646 4.65944899 94.8141058 10.66650391 94.80871582 C11.72664703 94.81300095 12.78679016 94.81728607 13.87905884 94.82170105 C16.11646818 94.82743103 18.35389614 94.82795445 20.59130859 94.8236084 C23.99951243 94.82045175 27.40684496 94.84391362 30.81494141 94.8692627 C32.99462782 94.87153627 35.17431655 94.87223891 37.35400391 94.87121582 C38.36570648 94.88042557 39.37740906 94.88963531 40.41976929 94.89912415 C47.90894807 94.85058484 53.79634378 94.05181436 59.58056641 88.88293457 C62.13854462 84.69715203 62.94115097 81.39126117 62.64306641 76.50793457 C61.03429337 71.77099175 58.81521653 69.22468349 54.64306641 66.50793457 C49.04131376 64.04358268 43.62668382 64.20176334 37.61962891 64.20715332 C36.55948578 64.20286819 35.49934265 64.19858307 34.40707397 64.19416809 C32.16966464 64.18843811 29.93223667 64.18791469 27.69482422 64.19226074 C24.28662038 64.19541739 20.87928786 64.17195552 17.47119141 64.14660645 C15.29150499 64.14433287 13.11181626 64.14363023 10.93212891 64.14465332 C9.92042633 64.13544357 8.90872375 64.12623383 7.86636353 64.116745 C0.37718475 64.1652843 -5.51021097 64.96405478 -11.29443359 70.13293457 Z " fill="#000000" transform="translate(79.35693359375,128.4920654296875)"/>
<path d="M0 0 C90.75 0 181.5 0 275 0 C275.0825 27.67875 275.165 55.3575 275.25 83.875 C275.28641602 92.60694824 275.32283203 101.33889648 275.36035156 110.33544922 C275.37841797 121.01782227 275.37841797 121.01782227 275.3817749 126.02249146 C275.38549382 129.50965606 275.40045271 132.99657582 275.42230225 136.4836731 C275.44984812 140.93927501 275.45794459 145.39452364 275.4522891 149.8502028 C275.45347076 151.48067462 275.46133807 153.11115948 275.47686052 154.74155784 C275.58478653 166.63529837 274.40058198 176.24715054 265.93359375 185.2421875 C260.58661423 190.10307797 255.26030505 193.11822441 247.95377731 193.13142776 C247.15304912 193.13526891 246.35232093 193.13911005 245.52732825 193.1430676 C244.65340942 193.14220112 243.77949058 193.14133463 242.87908936 193.14044189 C241.94618269 193.14341302 241.01327603 193.14638414 240.05209947 193.1494453 C236.91851301 193.15813363 233.78496475 193.15964066 230.65136719 193.16113281 C228.40762755 193.16576089 226.16388869 193.17078553 223.92015076 193.17617798 C217.81880568 193.18930496 211.71747161 193.19574752 205.61611462 193.20018864 C201.80484812 193.20311887 197.99358463 193.20722359 194.18231964 193.21169281 C183.62564596 193.22380153 173.06897491 193.23418363 162.51229477 193.2375679 C161.83686477 193.23778747 161.16143478 193.23800703 160.46553721 193.23823325 C159.78851019 193.23845153 159.11148318 193.23866981 158.41394019 193.2388947 C157.04207341 193.23933816 155.67020663 193.23978473 154.29833984 193.24023438 C153.2776044 193.24056652 153.2776044 193.24056652 152.23624805 193.24090537 C141.21321543 193.24485225 130.19024897 193.26230349 119.1672419 193.2855939 C107.84434737 193.3093244 96.52149718 193.32151269 85.19857335 193.32293582 C78.84349201 193.32398425 72.48850398 193.32990024 66.13344574 193.34775543 C60.154787 193.36422616 54.17629182 193.36639636 48.19761848 193.35761642 C46.00466792 193.35684552 43.81170859 193.36119574 41.61878014 193.37107468 C38.62194044 193.38378215 35.62568103 193.37792361 32.62884521 193.36749268 C31.33135129 193.37957728 31.33135129 193.37957728 30.00764537 193.39190602 C20.41094782 193.31394261 14.17107697 189.98230225 7.20703125 183.4140625 C1.42163095 177.08596093 -0.12645953 170.46744517 -0.12025452 162.10308838 C-0.12111053 161.41121933 -0.12196655 160.71935028 -0.12284851 160.0065155 C-0.12450322 157.6817263 -0.11898084 155.35700918 -0.11352539 153.03222656 C-0.11321906 151.3396594 -0.11335254 149.6470921 -0.11389065 147.95452499 C-0.11411653 143.41943037 -0.10831808 138.88436209 -0.10128021 134.34927368 C-0.09558787 130.09466468 -0.09531723 125.8400621 -0.09460449 121.58544922 C-0.08935589 109.14029598 -0.07539475 96.69514766 -0.0625 84.25 C-0.041875 56.4475 -0.02125 28.645 0 0 Z M86.0625 39.625 C83.50452178 43.81078254 82.70191543 47.1166734 83 52 C84.60877303 56.73694282 86.82784988 59.28325108 91 62 C95.69605414 63.9220016 99.97753723 64.29182653 104.98974609 64.2746582 C106.15684364 64.2823246 106.15684364 64.2823246 107.34751892 64.29014587 C109.90623785 64.30398625 112.4646857 64.30308919 115.0234375 64.30078125 C116.81173807 64.30467147 118.60003772 64.30900682 120.38833618 64.31376648 C124.13229368 64.32121693 127.87615686 64.32094612 131.62011719 64.31567383 C136.40374747 64.30988337 141.18699004 64.32680563 145.97055626 64.3500185 C149.66301712 64.36479403 153.35538545 64.36562231 157.04787064 64.36250877 C158.81081535 64.36302015 160.57376549 64.36822326 162.33668137 64.37832069 C164.80852756 64.39074102 167.2796294 64.38386025 169.75146484 64.37231445 C170.47068619 64.37995819 171.18990753 64.38760193 171.93092346 64.39547729 C178.54301081 64.32765877 183.9590454 62.82383177 188.9375 58.375 C191.49547822 54.18921746 192.29808457 50.8833266 192 46 C190.39122697 41.26305718 188.17215012 38.71674892 184 36 C179.30394586 34.0779984 175.02246277 33.70817347 170.01025391 33.7253418 C169.23218887 33.72023087 168.45412384 33.71511993 167.65248108 33.70985413 C165.09376215 33.69601375 162.5353143 33.69691081 159.9765625 33.69921875 C158.18826193 33.69532853 156.39996228 33.69099318 154.61166382 33.68623352 C150.86770632 33.67878307 147.12384314 33.67905388 143.37988281 33.68432617 C138.59625253 33.69011663 133.81300996 33.67319437 129.02944374 33.6499815 C125.33698288 33.63520597 121.64461455 33.63437769 117.95212936 33.63749123 C116.18918465 33.63697985 114.42623451 33.63177674 112.66331863 33.62167931 C110.19147244 33.60925898 107.7203706 33.61613975 105.24853516 33.62768555 C104.52931381 33.62004181 103.81009247 33.61239807 103.06907654 33.60452271 C96.45698919 33.67234123 91.0409546 35.17616823 86.0625 39.625 Z M86.0625 103.625 C83.50452178 107.81078254 82.70191543 111.1166734 83 116 C84.60877303 120.73694282 86.82784988 123.28325108 91 126 C95.69605414 127.9220016 99.97753723 128.29182653 104.98974609 128.2746582 C106.15684364 128.2823246 106.15684364 128.2823246 107.34751892 128.29014587 C109.90623785 128.30398625 112.4646857 128.30308919 115.0234375 128.30078125 C116.81173807 128.30467147 118.60003772 128.30900682 120.38833618 128.31376648 C124.13229368 128.32121693 127.87615686 128.32094612 131.62011719 128.31567383 C136.40374747 128.30988337 141.18699004 128.32680563 145.97055626 128.3500185 C149.66301712 128.36479403 153.35538545 128.36562231 157.04787064 128.36250877 C158.81081535 128.36302015 160.57376549 128.36822326 162.33668137 128.37832069 C164.80852756 128.39074102 167.2796294 128.38386025 169.75146484 128.37231445 C170.47068619 128.37995819 171.18990753 128.38760193 171.93092346 128.39547729 C178.54301081 128.32765877 183.9590454 126.82383177 188.9375 122.375 C191.49547822 118.18921746 192.29808457 114.8833266 192 110 C190.39122697 105.26305718 188.17215012 102.71674892 184 100 C179.30394586 98.0779984 175.02246277 97.70817347 170.01025391 97.7253418 C169.23218887 97.72023087 168.45412384 97.71511993 167.65248108 97.70985413 C165.09376215 97.69601375 162.5353143 97.69691081 159.9765625 97.69921875 C158.18826193 97.69532853 156.39996228 97.69099318 154.61166382 97.68623352 C150.86770632 97.67878307 147.12384314 97.67905388 143.37988281 97.68432617 C138.59625253 97.69011663 133.81300996 97.67319437 129.02944374 97.6499815 C125.33698288 97.63520597 121.64461455 97.63437769 117.95212936 97.63749123 C116.18918465 97.63697985 114.42623451 97.63177674 112.66331863 97.62167931 C110.19147244 97.60925898 107.7203706 97.61613975 105.24853516 97.62768555 C104.52931381 97.62004181 103.81009247 97.61239807 103.06907654 97.60452271 C96.45698919 97.67234123 91.0409546 99.17616823 86.0625 103.625 Z " fill="#000000" transform="translate(118,319)"/>
<path d="M0 0 C2.03696693 -0.00543204 4.07392993 -0.01256072 6.11088562 -0.02124023 C11.60059841 -0.03934783 17.09000773 -0.0324583 22.57972527 -0.01972389 C28.35023638 -0.0095307 34.12072312 -0.019007 39.89123535 -0.02526855 C49.57809061 -0.03252666 59.26482351 -0.0230056 68.95166016 -0.00390625 C80.11881839 0.01785885 91.2856844 0.01080618 102.45283556 -0.01121187 C112.07539876 -0.02941835 121.69787447 -0.0318986 131.32044935 -0.0214572 C137.05241142 -0.01525105 142.78423655 -0.01430684 148.51618958 -0.02760315 C153.90742853 -0.03923767 159.29829415 -0.03099814 164.68949318 -0.00802612 C166.65696915 -0.0027794 168.62447706 -0.00418271 170.59193993 -0.01307678 C194.45448846 -0.11092664 213.16421077 5.92574559 230.74804688 22.82226562 C251.63460002 44.56424074 251.34960938 69.69177693 251.34960938 99.51757812 C140.79960937 99.51757812 30.24960937 99.51757812 -83.65039062 99.51757812 C-83.65039062 68.2561444 -83.31325671 44.52093513 -62.15820312 21.93164062 C-44.03733071 4.488184 -24.19383032 -0.10937019 0 0 Z " fill="#000000" transform="translate(171.650390625,-0.517578125)"/>
</svg>
