<svg xmlns="http://www.w3.org/2000/svg" width="512" height="512" viewBox="0 0 512 512" version="1.1"><path d="" stroke="none" fill="#080404" fill-rule="evenodd"/><path d="M 101.202 7.022 C 89.963 9.966, 82.520 14.382, 73.500 23.454 C 64.890 32.114, 60.405 39.782, 57.218 51.295 C 55.621 57.064, 55.500 71.447, 55.500 256 C 55.500 444.929, 55.588 454.809, 57.320 460.913 C 63.758 483.605, 81.690 500.917, 103.500 505.496 C 109.496 506.754, 134.579 506.968, 278.349 506.983 C 431.652 506.998, 446.496 506.858, 449.643 505.365 C 453.811 503.387, 456 499.488, 456 494.040 C 456 490.391, 455.276 489.199, 448.841 482.259 C 444.020 477.060, 440.518 472.087, 438.117 467.031 C 434.958 460.380, 434.507 458.425, 434.165 449.899 C 433.530 434.090, 437.133 424.918, 448.702 412.889 C 452.314 409.133, 455.479 404.817, 456.030 402.895 C 457.551 397.593, 457.223 17.475, 455.694 13.035 C 455.012 11.055, 453.044 8.590, 451.102 7.285 L 447.704 5 278.102 5.055 C 114.409 5.108, 108.246 5.177, 101.202 7.022 M 105.324 31.439 C 96.181 34.298, 87.735 42.067, 83.160 51.825 L 80.500 57.500 80.233 228.386 C 80.014 368.680, 80.200 399.079, 81.269 398.192 C 81.985 397.597, 85.340 395.737, 88.724 394.058 C 101.538 387.701, 91.642 388.031, 269.750 388.015 L 432 388 432 209 L 432 30 270.750 30.067 C 141.027 30.121, 108.684 30.389, 105.324 31.439 M 245.500 75.651 C 238.001 76.847, 229.940 79.459, 223.500 82.778 C 214.187 87.579, 201.755 99.975, 196.979 109.222 L 193.507 115.945 189.503 115.222 C 183.417 114.124, 170.162 114.489, 164 115.924 C 142.926 120.832, 125.509 136.997, 117.883 158.725 C 114.922 167.159, 114.281 181.671, 116.440 191.375 C 119.054 203.125, 124.987 214.019, 133.397 222.511 C 140.221 229.402, 150.387 236.095, 156.207 237.528 L 158.915 238.195 159.207 277.848 L 159.500 317.500 162.908 323.785 C 166.769 330.905, 170.748 334.778, 178.287 338.752 L 183.500 341.500 256 341.500 L 328.500 341.500 333.713 338.752 C 341.252 334.778, 345.231 330.905, 349.092 323.785 L 352.500 317.500 352.793 277.896 L 353.085 238.291 357 237.118 C 359.152 236.473, 364.292 233.686, 368.421 230.925 C 389.099 217.094, 399.958 191.969, 395.713 167.777 C 390.610 138.697, 368.260 118.094, 337.886 114.473 C 333.008 113.891, 322.136 114.933, 315.335 116.633 C 313.522 117.086, 312.833 116.410, 311.090 112.471 C 304.173 96.834, 289.419 83.747, 272.785 78.492 C 265.029 76.042, 251.729 74.657, 245.500 75.651 M 243.024 101.539 C 228.747 105.543, 218.168 117.138, 215.059 132.189 C 213.613 139.189, 211.044 142.607, 206.122 144.081 C 202.780 145.083, 201.287 144.845, 192.968 141.989 C 184.771 139.174, 182.621 138.823, 175.966 139.208 C 161.562 140.042, 149.439 148.269, 142.829 161.695 C 139.858 167.731, 139.568 169.141, 139.595 177.413 C 139.634 189.003, 142.133 195.796, 149.204 203.533 C 155.454 210.371, 160.376 213.307, 169.819 215.827 C 178.065 218.028, 181.542 220.693, 182.996 225.926 C 183.542 227.892, 183.991 238.162, 183.994 248.750 L 184 268 199.500 268 L 215 268 215 253.950 C 215 237.918, 215.962 234.750, 221.534 232.421 C 225.879 230.606, 228.414 230.628, 232.393 232.516 C 238.118 235.233, 239 238.088, 239 253.904 L 239 268 256 268 L 273 268 273 253.904 C 273 238.088, 273.882 235.233, 279.607 232.516 C 283.700 230.574, 286.360 230.602, 290.643 232.635 C 296.178 235.262, 297 238.016, 297 253.950 L 297 268 312.500 268 L 328 268 328.024 249.250 C 328.037 238.938, 328.463 228.700, 328.971 226.500 C 330.185 221.237, 334.482 217.491, 340.877 216.120 C 366.095 210.711, 379.755 183.210, 368.376 160.755 C 357.852 139.987, 333.607 133.175, 312.536 145.067 C 306.474 148.488, 302.736 148.746, 298.314 146.050 C 294.275 143.587, 293.437 141.967, 291.571 133.020 C 289.558 123.366, 286.598 117.513, 280.784 111.693 C 271.119 102.019, 255.903 97.927, 243.024 101.539 M 184 302.545 C 184 311.347, 184.191 312.282, 186.455 314.545 L 188.909 317 256 317 L 323.091 317 325.545 314.545 C 327.809 312.282, 328 311.347, 328 302.545 L 328 293 256 293 L 184 293 184 302.545 M 104.994 413.934 C 101.650 414.951, 96.138 417.838, 92.734 420.355 C 85.068 426.022, 79.214 440.380, 80.507 450.341 C 82.010 461.916, 90.375 473.578, 100.874 478.736 L 106.500 481.500 261.862 481.762 C 409.914 482.012, 417.188 481.942, 416.476 480.262 C 416.065 479.293, 414.377 474.675, 412.725 470 C 406.981 453.745, 407.999 433.357, 415.311 418.199 L 417.819 413 262.660 413.086 C 177.322 413.133, 106.372 413.515, 104.994 413.934" stroke="none" fill="#040404" fill-rule="evenodd"/></svg>